<svg xmlns="http://www.w3.org/2000/svg" viewBox="0 0 1000 1000" id="FastTime">
  <path d="M640.32,825.32a279.93,279.93,0,1,1,197.94-82A278.13,278.13,0,0,1,640.32,825.32Zm0-527.87c-136.71,0-247.94,111.22-247.94,247.93S503.61,793.32,640.32,793.32,888.25,682.1,888.25,545.38,777,297.45,640.32,297.45Z" fill="#34a853" class="color000000 svgShape"></path>
  <path d="M526.24 759a16 16 0 01-13.84-24L535 695.89a16 16 0 0127.71 16L540.11 751A16 16 0 01526.24 759zM731.82 402.88a16 16 0 01-13.84-24l22.54-39.06a16 16 0 0127.72 16l-22.55 39.06A16 16 0 01731.82 402.88zM442.77 675.45a16 16 0 01-8-29.86L473.81 623a16 16 0 0116 27.72L450.76 673.3A15.88 15.88 0 01442.77 675.45zM798.84 469.87a16 16 0 01-8-29.86l39-22.54a16 16 0 1116 27.71l-39 22.55A16 16 0 01798.84 469.87zM457.29 561.38h-45.1a16 16 0 110-32h45.1a16 16 0 110 32zM868.44 561.38H823.35a16 16 0 010-32h45.09a16 16 0 010 32zM481.79 469.87a16 16 0 01-8-2.14l-39.05-22.55a16 16 0 1116-27.71L489.81 440a16 16 0 01-8 29.86zM837.86 675.45a15.87 15.87 0 01-8-2.15l-39-22.54a16 16 0 0116-27.72l39 22.55a16 16 0 01-8 29.86zM548.82 402.88a16 16 0 01-13.87-8L512.4 355.82a16 16 0 0127.71-16l22.55 39.06a16 16 0 01-13.84 24zM754.39 759a16 16 0 01-13.87-8L718 711.89a16 16 0 0127.71-16L768.24 735a16 16 0 01-13.85 24zM640.32 378.35a16 16 0 01-16-16V317.26a16 16 0 0132 0v45.09A16 16 0 01640.32 378.35zM640.32 789.51a16 16 0 01-16-16v-45.1a16 16 0 0132 0v45.1A16 16 0 01640.32 789.51zM758.36 561.68H670.82a16 16 0 010-32h87.54a16 16 0 010 32zM640.32 530.88a16 16 0 01-16-16V416.56a16 16 0 0132 0v98.32A16 16 0 01640.32 530.88z" fill="#34a853" class="color000000 svgShape"></path>
  <path d="M640.32 591.89a46.51 46.51 0 1146.5-46.51A46.56 46.56 0 01640.32 591.89zm0-61a14.51 14.51 0 1014.5 14.5A14.53 14.53 0 00640.32 530.88zM453.24 374.87a15.93 15.93 0 01-11.3-4.68l-59.2-59.08a16 16 0 1122.6-22.65l59.2 59.08a16 16 0 01-11.3 27.33z" fill="#34a853" class="color000000 svgShape"></path>
  <path d="M364.5 345.38a16 16 0 01-11.33-27.3l59.09-59.2a16 16 0 0122.65 22.6l-59.09 59.2A15.9 15.9 0 01364.5 345.38zM640.06 297a16 16 0 01-16-16L624 197.38a16 16 0 0116-16h0a16 16 0 0116 16l.09 83.64a16 16 0 01-16 16zM827.05 374.23a16 16 0 01-11.31-27.32l59.14-59.14a16 16 0 0122.63 22.63l-59.15 59.14A16 16 0 01827.05 374.23z" fill="#34a853" class="color000000 svgShape"></path>
  <path d="M915.76 344.65A16 16 0 01904.45 340l-59.14-59.15a16 16 0 1122.62-22.62l59.15 59.14a16 16 0 01-11.32 27.31zM701.71 213.36H578.32a16 16 0 01-16-16V147.77a16 16 0 0116-16H701.71a16 16 0 0116 16v49.59A16 16 0 01701.71 213.36zm-107.39-32h91.39V163.77H594.32zM327.84 383.36H195.12a16 16 0 010-32H327.84a16 16 0 110 32zM288.42 472.37H155.7a16 16 0 110-32H288.42a16 16 0 010 32zM305.64 561.38H115.76a16 16 0 110-32H305.64a16 16 0 010 32zM288.42 650.4H155.7a16 16 0 110-32H288.42a16 16 0 010 32zM327.84 739.41H195.12a16 16 0 010-32H327.84a16 16 0 110 32z" fill="#34a853" class="color000000 svgShape"></path>
</svg>
