<svg xmlns="http://www.w3.org/2000/svg" width="76" height="76" viewBox="0 0 76 76" id="leaf">
  <g fill="none" fill-rule="evenodd" transform="translate(-992 -692)">
    <g fill="#000" transform="translate(94 95)">
      <path d="M922.236,644.363 C917.256,641.989 911.134,635.281 908.119,627.176 C907.881,626.536 907.662,625.888 907.469,625.231 C907.02,623.702 906.698,622.132 906.516,620.544 C905.93,615.447 906.81,610.165 909.99,605.328 L910.207,604.989 L910.336,605.371 C910.984,607.047 911.933,608.497 913.042,609.836 C913.149,609.965 913.259,610.091 913.365,610.221 C913.613,610.522 913.858,610.828 914.116,611.124 C917.482,614.983 922.031,618.041 924.918,622.07 C925.763,623.25 926.48,624.506 926.977,625.899 C928.406,629.911 928.081,635.03 924.268,642.338 C924.697,642.2 925.261,642.013 925.94,641.797 C930.874,640.226 941.76,637.159 950.818,639.729 C951.544,639.935 952.258,640.179 952.959,640.456 C954.008,640.871 955.028,641.366 956,641.966 C959.351,644.037 962.151,647.317 963.866,652.321 L964.099,653.026 L963.368,652.891 C961.448,652.525 959.323,652.824 956.961,653.279 C952.647,654.108 947.567,655.456 941.55,654.588 C938.347,654.126 934.886,653.024 931.113,650.901 C928.331,649.336 925.369,647.226 922.236,644.363 Z M910.094,605.901 C907.304,610.59 906.64,615.617 907.301,620.446 C907.512,621.983 907.861,623.499 908.308,624.982 C908.5,625.619 908.708,626.252 908.935,626.876 C911.826,634.828 917.699,641.481 922.537,643.836 L922.612,643.887 C925.692,646.764 928.596,648.916 931.355,650.471 C935.058,652.557 938.482,653.585 941.631,654.002 C947.573,654.789 952.56,653.353 956.803,652.483 C958.987,652.036 960.98,651.739 962.807,651.926 C961.239,647.448 958.717,644.431 955.681,642.472 C954.75,641.871 953.774,641.365 952.759,640.956 C952.078,640.682 951.379,640.453 950.67,640.259 C941.73,637.802 931.041,640.999 926.198,642.595 C925.021,642.984 924.182,643.279 923.79,643.385 C923.609,643.434 923.484,643.444 923.424,643.44 C923.267,643.428 923.175,643.356 923.119,643.297 C923.008,643.18 922.919,643 923.063,642.76 C927.241,635.314 927.745,630.154 926.358,626.116 C925.897,624.775 925.238,623.553 924.424,622.424 C921.535,618.416 916.89,615.489 913.466,611.701 C913.193,611.4 912.921,611.098 912.671,610.779 C912.563,610.642 912.461,610.5 912.361,610.358 C911.398,608.998 910.614,607.53 910.094,605.901 Z"></path>
      <path d="M962.674 600.267C959.727 602.4 954.367 603.305 948.924 604.753 944.06 606.047 939.133 607.774 935.739 611.102 932.823 613.961 931.014 617.995 931.336 623.934 931.433 625.707 931.725 627.652 932.233 629.788L932.533 630.135C934.804 631.035 938.575 631.517 942.712 630.909 947.271 630.239 952.281 628.258 956.19 624.127 960.633 619.432 963.664 611.939 962.949 600.397L962.674 600.267zM962.617 600.733C959.63 602.811 954.397 603.83 949.085 605.338 944.368 606.678 939.588 608.406 936.324 611.69 933.601 614.43 931.964 618.263 932.31 623.878 932.412 625.527 932.68 627.328 933.143 629.299 935.318 630.102 938.782 630.49 942.577 629.962 946.97 629.351 951.804 627.505 955.624 623.583 960.005 619.084 963.049 611.882 962.617 600.733zM923.069 643.938C923.884 643.912 925.58 643.88 927.824 643.961 930.03 644.041 932.766 644.231 935.711 644.628 939.856 645.185 944.411 646.161 948.496 647.773 948.585 647.806 948.63 647.905 948.597 647.994 948.564 648.084 948.464 648.129 948.375 648.095 944.276 646.643 939.732 645.866 935.615 645.43 932.689 645.12 929.979 644.99 927.794 644.937 924.637 644.86 922.583 644.949 922.583 644.949L922.031 644.976 922.064 644.424C922.064 644.424 922.205 642.26 921.923 638.923 921.788 637.327 921.56 635.464 921.171 633.44 920.547 630.192 919.519 626.531 917.8 622.899 917.758 622.814 917.792 622.71 917.878 622.668 917.963 622.626 918.066 622.661 918.109 622.746 919.978 626.359 921.159 630.023 921.894 633.289 922.353 635.333 922.638 637.219 922.812 638.838 923.071 641.257 923.084 643.079 923.069 643.938z"></path>
      <path d="M908.994,669.686 C908.994,669.686 910.645,666.722 913.323,662.056 C914.584,659.859 916.075,657.287 917.715,654.461 C921.607,647.755 926.404,639.659 931.662,632.167 C938.003,623.13 944.91,614.914 951.33,610.906 C951.493,610.807 951.545,610.595 951.446,610.432 C951.348,610.269 951.135,610.217 950.973,610.316 C944.365,614.207 937.12,622.317 930.483,631.319 C925.018,638.733 919.9,646.708 915.985,653.457 C914.337,656.299 912.914,658.928 911.734,661.184 C909.223,665.98 907.818,669.095 907.818,669.095 C907.655,669.419 907.786,669.815 908.11,669.978 C908.435,670.141 908.831,670.01 908.994,669.686 Z"></path>
    </g>
  </g>
</svg>
